<svg aria-hidden="true" style="position: absolute; width: 0; height: 0; overflow: hidden;" version="1.1" xmlns="http://www.w3.org/2000/svg" xmlns:xlink="http://www.w3.org/1999/xlink">
<defs>
<symbol id="icon-discord" viewBox="0 0 32 32">
<path d="M25.258 7.846c-1.59-0.718-3.438-1.284-5.369-1.606l-0.133-0.018c-0.22 0.368-0.456 0.82-0.668 1.284l-0.038 0.092c-0.916-0.138-1.973-0.217-3.048-0.217s-2.132 0.079-3.165 0.231l0.117-0.014c-0.251-0.554-0.489-1.005-0.75-1.441l0.036 0.065c-1.932 0.314-3.78 0.868-5.506 1.628-3.48 4.944-4.424 9.764-3.952 14.516 1.931 1.381 4.174 2.491 6.586 3.207l0.16 0.041c0.544-0.7 1.028-1.448 1.446-2.236-0.884-0.318-1.634-0.669-2.347-1.078l0.071 0.038c0.19-0.132 0.378-0.272 0.558-0.414 4.388 1.928 9.156 1.928 13.49 0 0.182 0.142 0.37 0.28 0.56 0.414-0.724 0.408-1.486 0.76-2.28 1.042 0.416 0.786 0.9 1.534 1.444 2.236 2.574-0.757 4.819-1.867 6.82-3.296l-0.068 0.046c0.552-5.508-0.946-10.284-3.964-14.52zM11.572 19.444c-1.318 0-2.398-1.156-2.398-2.562 0-1.408 1.058-2.564 2.398-2.564s2.42 1.154 2.396 2.564c0.002 1.406-1.056 2.56-2.396 2.56zM20.432 19.444c-1.32 0-2.4-1.156-2.4-2.562 0-1.408 1.060-2.564 2.4-2.564s2.42 1.154 2.396 2.564c0 1.406-1.056 2.56-2.396 2.56z"></path>
</symbol>
<symbol id="icon-Frame" viewBox="0 0 48 32">
<path d="M0.352 23.38h3.148c1.86 0 3.024 0.83 3.012 2.097-0.006 0.546 0 1.227-0.706 1.85 0.488 0 1.050 0.664 1.050 1.98 0 1.674-0.978 2.57-2.515 2.57h-3.99v-8.496zM2.282 25.201v1.543h1.525c0.564 0 0.699-0.476 0.699-0.724v-0.060c0-0.483-0.19-0.735-0.699-0.735l-1.524-0.025zM2.282 28.35v1.825h1.788c0.428 0 0.589-0.437 0.589-0.823v-0.127c0-0.582-0.277-0.864-0.788-0.864l-1.588-0.011zM9.077 28.103l-2.923-4.72h2.541l1.41 2.768 1.551-2.768h2.312l-2.833 4.72v3.776h-2.058v-3.776zM28.968 26.128c0 1.716-1.367 3.096-4.35 3.096v2.652h-2.085v-8.482h3.167c2.446 0 3.269 1.018 3.269 2.734zM24.618 27.639h0.727c0.939 0 1.675-0.524 1.675-1.511s-0.599-1.257-1.675-1.257h-0.727v2.769zM0.352 22.237v-11.12h2.948l3.379 5.95 3.563-5.95h2.948v11.12h-2.948v-5.080l-3.563 5.080-3.38-5.080v5.080h-2.946zM16.816 11.117h4.013l2.927 11.12h-2.605l-0.686-2.068h-3.377l-0.634 2.068h-2.657l3.020-11.12zM18.823 14.052l-1.328 4.071h2.557l-1.23-4.071zM34.082 11.118h8.266v2.513h-5.634v1.75h5.634v2.45h-5.634v2.083h5.634v2.323h-8.266v-11.12zM29.428 23.395h6.304v1.917h-4.297v1.334h4.297v1.869h-4.297v1.59h4.297v1.77h-6.304v-8.48zM16.778 23.395h3.060l2.234 8.48h-1.987l-0.523-1.576h-2.577l-0.484 1.577h-2.026l2.303-8.482zM18.309 25.633l-1.012 3.105h1.95l-0.938-3.105zM28.080 22.252l-3.752-0.010v-11.12l3.752-0.034c3.516 0 5.393 1.633 5.393 5.666 0 3.094-1.802 5.498-5.393 5.498zM26.911 19.848h1.17c1.64 0 2.641-1.002 2.641-3.094s-0.78-3.067-2.642-3.067h-1.169v6.16z"></path>
<path d="M36.482 25.751c0-1.323 0.988-2.284 2.586-2.415 1.334-0.11 2.55 0.354 3.471 0.941l-0.842 1.797s-0.943-0.524-1.497-0.692c-0.435-0.132-1.013-0.007-1.132 0.276-0.118 0.282-0.096 0.572 0.288 0.757l0.102 0.049c0.212 0.1 0.532 0.253 0.895 0.464h0.006c0.435 0.475 0.941 0.875 1.505 1.185l0.030 0.015h-0.010c0.326 0.387 0.574 0.847 0.574 1.352 0 1.322-1.139 2.375-2.737 2.506-1.334 0.11-2.553-0.474-3.475-1.061l0.652-1.8s1.289 0.555 1.842 0.724c0.435 0.132 1.013 0.007 1.131-0.276 0.12-0.282 0.134-0.484-0.287-0.756-0.114-0.074-0.266-0.164-0.421-0.25l-0.045-0.023c-0.236-0.128-0.376-0.21-0.516-0.293l0.085 0.047c-0.167-0.084-2.207-1.139-2.207-2.547h0.002z"></path>
<path d="M45.857 12.942v-1.854h0.464l0.577 0.992 0.552-0.992h0.549v1.854h-0.463v-0.915l-0.638 0.915-0.549-0.915v0.915h-0.492zM43.928 11.478v-0.39h1.755v0.39h-0.64v1.464h-0.47v-1.464h-0.645zM9.971 0.854l-0.996-0.157c-0.058-0.010-0.068-0.082-0.014-0.104 2.314-0.944 4.754-0.557 6.533 0.925 0.063 0.053 0.046 0.149-0.030 0.186-0.32 0.156-0.675 0.384-0.834 0.49-0.020 0.013-0.045 0.021-0.071 0.021-0.034 0-0.065-0.013-0.089-0.034l0 0c-1.14-1.013-3.247-1.15-4.499-1.327zM32.728 0.854l0.996-0.157c0.058-0.010 0.068-0.082 0.014-0.104-2.314-0.944-4.755-0.557-6.533 0.925-0.063 0.053-0.047 0.149 0.029 0.186 0.32 0.156 0.676 0.384 0.835 0.49 0.020 0.013 0.045 0.021 0.071 0.021 0.034 0 0.065-0.013 0.089-0.034l-0 0c1.14-1.013 3.247-1.15 4.499-1.327zM21.408 1.668c-1.6 0-2.495-0.377-4.070-0.4-0.053 0-0.080-0.059-0.040-0.092 1.123-0.954 3.287-1.176 4.040-1.176 0.631 0 2.727 0.176 3.947 1.17 0.041 0.033 0.014 0.095-0.042 0.094-1.578-0.024-1.59 0.404-3.836 0.404z"></path>
<path d="M1.57 9.457h-0.974c-0.17 0-0.288-0.16-0.23-0.309 0.108-0.274 0.247-0.667 0.266-0.893 0.017-0.217 0.010-0.396 0.002-0.558-0.015-0.328-0.026-0.588 0.18-0.952 0.17-0.298 0.356-0.537 0.547-0.78 0.239-0.305 0.483-0.617 0.705-1.063 0.168-0.34 0.278-0.824 0.395-1.342 0.107-0.477 0.221-0.983 0.395-1.432 0.361-0.934 0.49-1.266 1.374-1.405 0.864-0.136 1.85 0.126 2.852 0.392 0.575 0.153 1.154 0.307 1.718 0.388 0.355 0.050 0.716 0.095 1.073 0.139 1.502 0.184 2.966 0.364 3.884 1.021 0.11 0.078 0.11 0.226 0.027 0.329-0.344 0.429-0.63 1.193-0.686 2.112-0.040 0.66 0.129 1.482 0.438 2.498 0.179 0.586-0.138 1.22-0.348 1.641l-0.040 0.079c-0.042 0.081-0.126 0.136-0.223 0.136-0.001 0-0.002 0-0.003 0h-7.493c-0.133 0-0.24-0.1-0.246-0.223-0.053-1.052-0.488-2.15-1.609-2.15-1.12 0-1.623 1.31-1.76 2.171-0.021 0.116-0.121 0.202-0.241 0.202-0.001 0-0.003 0-0.004-0h0zM3.465 5.795c0.411 0.411 1.917 0.6 2.734-0.203 0.955-0.938 1.020-2.912 0.060-3.442-0.38-0.21-1.040-0.263-1.040-0.263-0.957 0-1.154 0.726-1.362 1.494-0.053 0.195-0.106 0.393-0.173 0.582-0.061 0.174-0.146 0.338-0.226 0.496-0.237 0.466-0.448 0.881 0.007 1.336zM8.29 6.864c0.917 0.621 2.393 0.458 3.036-0.023 0.846-0.633 1.035-2.752 0.317-3.37-0.774-0.667-1.615-0.74-2.524-0.337-1.028 0.457-1.469 3.297-0.83 3.73h0.001zM41.128 9.457h0.974c0.17 0 0.288-0.16 0.23-0.309-0.108-0.274-0.247-0.667-0.266-0.893-0.007-0.088-0.010-0.19-0.010-0.294 0-0.093 0.003-0.185 0.009-0.277l-0.001 0.012c0.014-0.328 0.026-0.588-0.18-0.952-0.176-0.296-0.357-0.551-0.555-0.79l0.008 0.010c-0.239-0.305-0.483-0.617-0.705-1.063-0.168-0.34-0.278-0.824-0.394-1.342-0.108-0.477-0.222-0.983-0.396-1.432-0.361-0.934-0.49-1.266-1.374-1.405-0.864-0.136-1.85 0.126-2.852 0.392-0.575 0.153-1.154 0.307-1.718 0.388-0.355 0.050-0.716 0.095-1.073 0.139-1.502 0.184-2.966 0.364-3.884 1.021-0.11 0.078-0.11 0.226-0.027 0.329 0.344 0.429 0.63 1.193 0.686 2.112 0.040 0.66-0.129 1.482-0.438 2.498-0.162 0.532 0.083 1.102 0.287 1.517 0.107 0.203 0.317 0.339 0.559 0.339 0.003 0 0.005 0 0.008-0h7.254c0.133 0 0.24-0.1 0.246-0.223 0.053-1.052 0.488-2.15 1.609-2.15 1.12 0 1.623 1.31 1.76 2.171 0.021 0.116 0.121 0.202 0.241 0.202 0.001 0 0.002 0 0.003-0h-0zM39.234 5.795c-0.411 0.411-1.916 0.6-2.734-0.203-0.955-0.938-1.019-2.912-0.060-3.442 0.38-0.21 1.040-0.263 1.040-0.263 0.958 0 1.154 0.726 1.362 1.494 0.053 0.195 0.107 0.393 0.173 0.582l0.010 0.029c0.065 0.169 0.141 0.332 0.216 0.468 0.237 0.466 0.449 0.881-0.007 1.336zM34.41 6.864c-0.917 0.621-2.393 0.458-3.036-0.023-0.846-0.633-1.034-2.752-0.317-3.37 0.774-0.667 1.616-0.74 2.524-0.337 1.028 0.457 1.47 3.297 0.83 3.73zM18.937 9.458h-0c0 0 0 0 0 0 0.108 0 0.201-0.067 0.24-0.164 0.176-0.469 0.79-1.786 2.15-1.786s1.975 1.317 2.15 1.786l0.001 0.002c0.037 0.095 0.13 0.162 0.238 0.162 0 0 0.001 0 0.001 0h4.894c0.097 0 0.154-0.103 0.102-0.179-0.622-0.919-0.471-1.525-0.268-2.329 0.141-0.564 0.307-1.226 0.248-2.162-0.088-1.406-0.95-2.292-2.56-2.616-0.837-0.168-1.918-0.011-2.932 0.139-0.645 0.095-1.263 0.185-1.775 0.185-0.685 0-1.393-0.109-2.085-0.214-0.999-0.155-1.962-0.303-2.772-0.11-1.561 0.373-2.334 1.148-2.621 2.698-0.107 0.805 0.071 1.417 0.236 1.985 0.223 0.768 0.422 1.456-0.132 2.432-0.043 0.076 0.014 0.17 0.107 0.17h4.778zM18.238 7.263c-0.957 0.522-2.2 0.514-2.683-0.518-0.548-1.172-0.016-2.829 1.527-3.239 1.615-0.43 3.178-0.22 3.12 0.91-0.044 0.841-0.846 2.236-1.964 2.846zM27.176 6.745c-0.482 1.032-1.727 1.040-2.683 0.518-1.119-0.61-1.92-2.006-1.964-2.846-0.058-1.13 1.505-1.34 3.12-0.91 1.542 0.41 2.074 2.067 1.527 3.239z"></path>
</symbol>
<symbol id="icon-logo" viewBox="0 0 32 32">
<path d="M19.044 13.542l11.916-13.542h-2.824l-10.346 11.76-8.26-11.76h-9.53l12.494 17.78-12.494 14.206h2.824l10.922-12.42 8.726 12.42h9.528l-12.956-18.44zM15.18 17.94l-11.34-15.862h4.336l19.96 27.922h-4.336l-8.622-12.060z"></path>
</symbol>
<symbol id="icon-Logomark" viewBox="0 0 32 32">
<path d="M16.14 0c-0.041-0-0.089-0.001-0.137-0.001-8.839 0-16.004 7.165-16.004 16.004 0 0.048 0 0.096 0.001 0.144l-0-0.007c0.076 8.688 7.174 15.786 15.86 15.86 0.042 0 0.091 0.001 0.141 0.001 8.837 0 16-7.163 16-16 0-0.049-0-0.099-0.001-0.148l0 0.008c-0.074-8.686-7.172-15.784-15.86-15.86zM11.356 7.964c1.024 1.3 1.636 2.946 1.636 4.732 0 1.548-0.46 2.988-1.248 4.19h-5.544l5.154-8.926zM28.268 17.71v1.152c0 0.076-0.040 0.14-0.11 0.168-0.376 0.16-1.616 0.736-2.132 1.454-1.33 1.852-2.348 4.764-4.62 4.764h-9.48c-0.006 0-0.013 0-0.020 0-3.392 0-6.142-2.75-6.142-6.142 0-0.025 0-0.049 0-0.074l-0 0.004c0-0.088 0.074-0.16 0.162-0.16h4.494c0.154 0 0.276 0.124 0.276 0.276v0.868c0 0.46 0.374 0.836 0.836 0.836h3.408v-1.986h-2.328c1.331-1.672 2.136-3.816 2.136-6.147 0-0.008 0-0.015-0-0.022v0.001c0-2.6-0.998-4.97-2.63-6.744 1.063 0.126 2.018 0.328 2.941 0.605l-0.121-0.031v-0.552c0-0.573 0.465-1.038 1.038-1.038s1.038 0.465 1.038 1.038v1.33c3.18 1.486 5.264 3.95 5.264 6.736 0 1.636-0.716 3.158-1.95 4.438-0.23 0.237-0.552 0.384-0.907 0.384-0 0-0 0-0.001 0h-2.406v1.98h3.020c0.652 0 1.82-1.234 2.374-1.98 0 0 0.022-0.036 0.086-0.054 0.066-0.020 5.546-1.278 5.546-1.278 0.014-0.004 0.031-0.007 0.048-0.007 0.099 0 0.18 0.081 0.18 0.18 0 0 0 0 0 0.001v-0z"></path>
</symbol>
</defs>
</svg>
